<?xml version="1.0" encoding="UTF-8"?>
<svg id="Layer_1" data-name="Layer 1" xmlns="http://www.w3.org/2000/svg" viewBox="0 0 400 277.75">
  <defs>
    <style>
      .cls-1 {
        fill: #0050d3;
      }

      .cls-1, .cls-2, .cls-3, .cls-4, .cls-5, .cls-6, .cls-7, .cls-8, .cls-9, .cls-10, .cls-11, .cls-12, .cls-13, .cls-14, .cls-15, .cls-16, .cls-17, .cls-18, .cls-19, .cls-20, .cls-21, .cls-22, .cls-23, .cls-24, .cls-25, .cls-26, .cls-27, .cls-28, .cls-29, .cls-30, .cls-31, .cls-32, .cls-33, .cls-34, .cls-35, .cls-36, .cls-37, .cls-38, .cls-39, .cls-40, .cls-41 {
        stroke-width: 0px;
      }

      .cls-2 {
        fill: #169aff;
      }

      .cls-3 {
        fill: #0081dc;
      }

      .cls-4 {
        fill: #7ac7ff;
      }

      .cls-5 {
        fill: #7aceff;
      }

      .cls-6 {
        fill: #69c5ff;
      }

      .cls-7 {
        fill: #abc1ff;
      }

      .cls-8 {
        fill: #abc5ff;
      }

      .cls-9 {
        fill: #9db6ff;
      }

      .cls-10 {
        fill: #0a0a05;
      }

      .cls-11 {
        fill: #0291ff;
      }

      .cls-12 {
        fill: #004480;
      }

      .cls-13 {
        fill: #5ac7ff;
      }

      .cls-14 {
        fill: #0075f0;
      }

      .cls-15 {
        fill: #0091ff;
      }

      .cls-16 {
        fill: #002240;
      }

      .cls-17 {
        fill: #69d9ff;
      }

      .cls-18 {
        fill: #69beff;
      }

      .cls-19 {
        fill: #0090ff;
      }

      .cls-20 {
        fill: #8bcaff;
      }

      .cls-21 {
        fill: #1692ff;
      }

      .cls-22 {
        fill: #0d0b09;
      }

      .cls-23 {
        fill: #0064c9;
      }

      .cls-24 {
        fill: #007deb;
      }

      .cls-25 {
        fill: #003f76;
      }

      .cls-26 {
        fill: #003e72;
      }

      .cls-27 {
        fill: #003b5c;
      }

      .cls-28 {
        fill: #1a241b;
      }

      .cls-29 {
        fill: #9dc5ff;
      }

      .cls-30 {
        fill: #008bf8;
      }

      .cls-31 {
        fill: #49ceff;
      }

      .cls-32 {
        fill: #8bceff;
      }

      .cls-33 {
        fill: #0080df;
      }

      .cls-34 {
        fill: #080b07;
      }

      .cls-35 {
        fill: #69caff;
      }

      .cls-36 {
        fill: #006cde;
      }

      .cls-37 {
        fill: #abc7ff;
      }

      .cls-38 {
        fill: #bcc7ff;
      }

      .cls-39 {
        fill: #5bbcff;
      }

      .cls-40 {
        fill: #268cf3;
      }

      .cls-41 {
        fill: #0060dd;
      }
    </style>
  </defs>
  <path class="cls-34" d="M128.11,240.53c-3.43,1.71-6.72,3.65-10.87,3.22-1.81-.19-3.93.61-4.97-1.37-1.25-2.39.51-3.98,2.23-5.21,6.05-4.32,12.17-8.54,18.25-12.82.9-.63,2.23-.86,2.35-2.75-2.51-1.01-4.77.45-7.01,1.05-19.76,5.3-38.99,12.25-58.36,18.75-3.08,1.03-6.15,2.12-9.28,3-2.16.61-4.85,1.76-6.03-1.21-1.01-2.54,1.4-3.63,3.19-4.66,3.02-1.73,6.08-3.41,9.17-5.01,18.11-9.41,36.72-17.74,55.52-25.44-2.46-4.38-6.08-3.15-9.69-2.05-21.97,6.7-43.92,13.5-65.96,19.95-3.2.94-8.28,4.41-9.97.22-1.96-4.89,4.35-5.65,7.5-7.11,14.31-6.66,28.84-12.84,43.24-19.32,1.6-.72,3.81-.59,4.65-2.77-5,.28-9.99.61-14.98.8-2.52.09-5.83.54-6.57-2.48-.92-3.79,2.94-4.01,5.31-5.16.99-.48,1.99-.91,4.82-2.2-12.27-1.02-22.26,1.87-32.36,3.11-12.44,1.53-24.58,5.21-37.2,5.53-2.09.05-4.2,0-6.27-.24-2.04-.23-4.46-.34-4.8-3.07-.34-2.76,2.08-3.44,3.95-4.14,13.29-5.03,27.17-8,40.96-11.21,12.18-2.84,24.46-5.3,37.03-8-2.17-3.52-5.85-3.34-9-3.92-17.84-3.26-35.6-6.9-52.67-13.16-3.59-1.32-10.03-1.49-8.8-6.74,1.14-4.88,7.19-2.95,11.07-2.67,14.83,1.1,29.62,2.62,44.69,3.44-11.79-6.8-23.27-13.94-34.05-22.15-3.9-2.98-7.63-6.14-10.4-10.22-1.15-1.69-2.5-3.64-.99-5.76,1.64-2.31,3.85-1.98,6.25-1.12,9.28,3.32,17.24,9.08,25.79,13.75,11.2,6.11,22.41,12.18,34.86,17.69-.93-4.49-3.58-8.97,1.84-11.62,2.41-.66,2.18,1.17,1.69,2.23-1.71,3.74.39,5.44,3.28,6.87,9.43,7.27,20.29,9.29,31.94,10.28,18.94,1.61,36.15-5.07,53.93-9.24,2.79-.65,4.78-2.77,6.86-4.64,9.58-8.58,20.3-9.49,31.66-4.25,3.75,1.73,7.31,2.61,11.41,1.59,4.35-1.08,7.11-3.21,7.1-8.04-.01-4.78,1.58-9.1,3.9-13.21,1.73-3.07,2.75-6.39,2.96-9.94.57-9.47-3.72-14.85-13.03-16.39-2.76-.46-5.54-.66-8.32-.89-3.7-.48-7.11-1.9-10.55-3.22-2.28-1.14-5.37-1.16-6.12-4.42-.08-2.38,1.32-3.5,3.43-4.02,7.7-.16,14.75,3.09,22.2,4.27,5.04,1.57,11.12.44,14.79,5.61,4.79,6.01,5.89,14.8,13.91,18.38,1.7,1.55,3.33,3.17,4.68,5.04.9,1.41,1.63,2.9,2.33,4.42.98,2.25,1.45,4.55.61,6.96-3.14,5.8-6.8,11.13-12.93,14.23-3.64,1.84-4.98,5.37-6.47,8.79-1.09,2.17-1.63,4.75-4.29,5.74-2.18.27-3.25-.93-3.77-2.85-.22-2.37-.21-5.04-3.9-3.33-3.19,1.48-8.73.69-6.83,7.1,2.37,8.03.82,15.12-5.23,21.09-8.61,6.01-13.75,14.67-18.12,23.89-.72,2.12-1.85,4-3.33,5.67-2.81,2.15-4.68,4.99-6.02,8.22-.55,1.17-1.28,2.2-2.19,3.11-2.74,2.58-4.55,5.78-5.98,9.21-.52,2.79.45,5.58,0,8.36-.12.92-.34,1.83-.78,2.65-4.96,9.3-4.91,9.5,4.33,14.25,2.67,1.37,5.47,2.47,8.29,3.52,1.89.65,3.8,1.21,5.76,1.59,4.12.95,8.17,2.21,12.43,2.51,4.19.28,8.28,1.49,12.51,1.32,6.13-.19,12.26-.23,18.38-.03,12.38-.07,24.55-2.1,36.75-3.84,6.54-.57,12.4-3.53,18.59-5.31,11.64-3.48,21.77-9.87,31.76-16.53,4.23-2.84,8.2-6.02,12.04-9.37,5.13-3.15,8.59-8.18,13.3-11.8,4.1-4.36,8.24-8.69,11.2-13.96,5.47-9.16,10.9-18.33,13.45-28.85,1.25-4.35,2.67-8.66,2.97-13.23.76-3.1,1.09-6.25,1.04-9.45.31-5.01,1.3-9.97,1.18-15.02-.88-9.19-1.67-18.39-3.76-27.41-.35-3.49-1.43-6.8-2.58-10.08-3.48-10.02-7.63-19.69-14.56-27.91-2.83-4.15-5.09-8.72-8.85-12.21-6.88-6.04-13.27-12.62-20.59-18.15-2.73-2.14-5.6-4.04-8.77-5.46-5.34-3.14-10.74-6.19-16.54-8.44-5.51-1.56-10.66-4.26-16.39-5.1-1.08-.12-2.14-.32-3.19-.59-5.19-1.33-10.47-.21-15.69-.6-9.05-.23-17.79,1.63-26.46,3.94-3.67.94-7.25,2.18-10.78,3.54-4.76,1.96-9.35,4.29-13.78,6.91-2.37,1.58-5.05,2.67-7.27,4.5-5.16,3.53-9,8.84-15.06,11.16-1.66-.19-3.78.27-3.65-2.52C228.29,9.76,256.64-1.59,289.77.18c48.37,2.59,96.18,44.87,106.61,94.44,7.92,37.62,3.67,73.63-21.22,104.39-25.05,30.96-57.47,50.31-97.51,55.62-26.26,3.48-52.44,4.67-78.01-4.18-7.64-2.64-15.55-5.13-20.7-12.1-2.54-3.44-4.02.08-5.47.97-20.63,12.63-41.82,24.24-63.73,34.48-3.72,1.74-9.02,6.45-11.8,2.25-3.1-4.67,3.4-7.79,6.65-10.55,7.77-6.61,16.03-12.65,24.09-18.92,3.68-6.3,10.76-8.36,15.32-12.35-4.38,3.01-9.58,6.01-15.87,6.29Z"/>
  <path class="cls-10" d="M93.89,137.26c-7.26-1.17-2.62-6.4-3.34-9.8,12.38-4.99,25.56-8.04,36.92-15.54,5.02-3.32,10.31-6.24,15.6-9.12,12.08-6.57,21.1-15.58,25.12-29.19,1.63-5.52,4.29-10.77,7.83-15.44,5.04-6.65,9.84-6.91,16.36-.71,3-8.62,6.09-17.1,13.06-23.34,1.11,1.55,2.8,1.2,4.34,1.34.53,2.5-1.29,4.11-2.28,6.04-2.6,3.11-4.94,6.38-6.05,10.37q-3.22,11,6.78,16.45c1.38.75,3.01,1.23,3.15,3.19-1.84.2-3.14.98-3.21,3.05-5.15,1.7-8.71-1.61-12.49-4.06-1.54-1-2.71-2.51-4.03-3.82-7.68-7.6-11.27-7.69-14.31,2.86-7.34,25.41-26.36,38.16-48.27,48.52-1.26.6-2.44,1.33-3.6,2.11-1.85,1.34-3.66,2.74-5.86,3.49-1.81.65-3.54,1.5-5.23,2.42-3.8,1.94-7.96,2.8-12.01,3.97-4.14.86-7.59,2.51-8.46,7.21Z"/>
  <path class="cls-39" d="M128.11,240.53c6.79-3.2,13.58-6.4,20.36-9.6.24.41.47.81.71,1.22-6.84,4.81-13.68,9.63-20.52,14.44-2.4-1.82,1.76-4.23-.55-6.06Z"/>
  <path class="cls-38" d="M339.55,225.32c-9.94,6.85-20.09,13.28-31.87,16.6-2.45-2.17-.79-4.82-.71-7.2.26-7.48-1.69-14.36-8.08-18.31-8.32-5.14-12.43-12.92-16.18-21.24-2.8-11.26-9.65-20.29-16.61-29.29,6.88,9.4,13,19.15,14.7,30.94,1.57,10.2,4.32,19.7,11.31,27.92,5.05,5.93,3.22,15.46-2.95,22.85-12.41,2.68-24.96,4.19-37.66,4.35-1.13-1.34-1.55-2.95-1.16-4.57,3.31-13.85.42-28.35,4.51-42.13,1.21-4.1.84-8.36-.6-12.36-4.47-12.36-4.18-25.6-7.27-38.23-1.37-5.59-.23-11.5,1.83-17.02.82-4.78,2.59-8.61,7.65-10.61,5.69-2.25,7.92-8.16,11.71-12.43,2.67-6.04,6.7-10.92,11.9-15.02,5.82-4.6,11.75-9.07,17.44-13.84,6.53-5.48,14.04-8.55,22.84-9.06,8.99-.52,17.87-2.52,26.92-3.11,7.24-.47,13.19-4.04,17.68-9.93,2.23-2.93,4.35-6.09,8.28-7.08,8.16,7.42,11.65,17.38,14.93,27.45-8.84,10.12-20.56,13.8-33.42,14.7-5.1.36-10.25.38-15.33.04-17.47-1.17-33.57,3.55-42.29,7.72,12.71-7.81,34.12-6.2,55.31-5.97,12.33.13,24.73.93,35.85-6.04.8-.5,1.78-.4,2.67.04,3.53,9.35,3.39,19.23,4.22,28.98-1.76,3.52-4.95,3.25-7.88,2.55-13.71-3.31-27.11-1.61-40.73,1.16-9.45,1.92-19.04,2.22-28.65-1.95-11.93-5.18-24.28-3.34-36.16,1.41,5.87-1.31,11.9-1.78,17.79-2.88,7.55-1.4,13.74.65,19.44,5.28.9.73,1.7,1.68,2.73,2.16,14.39,6.64,27.24,15.8,40.55,24.23,5.54,3.51,12.44,3.46,18.97,3.77,2.96.14,6.14-.52,8.5,2.08-2.97,10.5-7.76,20.13-13.99,29.05-2.13.69-3.54-.64-4.94-1.82-18.83-15.94-40.84-24.18-65.12-27.07-6.44-.77-12.85-1.91-18.91-4.44-4.46-2.44-9.13-4.51-13.55-7.03-5.42-3.08-9.48-7.34-11.33-13.41.76,5.2,3.67,9.12,7.84,12.2,5.04,3.72,10.46,6.82,16.17,9.43,13.18,6.01,20.88,16.7,26.65,29.62,5.56,12.45,12.23,24.4,23.74,32.71,1.56,1.13,3.73,2.16,3.29,4.8Z"/>
  <path class="cls-37" d="M254.38,9.01c9.02-2.43,18.06-4.73,27.54-4.17.72,12.55,3.4,25.03,1.43,37.69-.35,2.24-1.52,4.43-.23,7.28,4.53-2.38,5.87-6.89,7.38-10.91,4.83-12.85,16.42-19.07,26.05-27.22.51-.43,1.32-.32,2.01-.11,5.62,2.83,11.23,5.66,16.85,8.49,1.76,3.05-.48,4.87-2.31,6.48-6.2,5.48-9.49,12.51-10.96,20.41-1.45,7.81-4.97,14.35-10.7,19.78-5.02,5.14-10.56,9.64-16.33,13.92-9.45,7-19.33,13.61-24.53,24.86-.62,1.34-1.51,3-3.63,2.51-.55-1.36-1.1-2.72-1.65-4.08-.92-2.9.24-5.48,1.29-8.06,2.27-5.63,3.77-11.49,4.79-17.43,1.48-8.55-.61-16.12-7.27-22.08-1.39-1.24-2.65-2.59-3.9-3.96-7.27-7.97-11.41-16.68-8.12-27.86,1.47-4.99-1.19-10.73,2.3-15.53Z"/>
  <path class="cls-8" d="M93.89,137.26c-3.93-8.81,4.64-6.21,7.8-8.54q3.29.71,1.64,4.35c3.6-2.54,6.45-6.11,11.17-6.27,5.39,2.8-.33,5.79.09,8.58,5.78,3.8,13.92-4.07,18.9,5.33.89-5.85-4.55-11.74.97-14.71,3.03-1.63,7.8,1.84,12,2.16,2.66.2,1.17,3.13,2.7,4.75,3.26-2.39,6.69-4.64,10.93-5.06,2.15-.21,3.15-1.72,3.53-3.73.35-1.89,1.47-3.39,2.63-4.85,1.26-1.6,2.28-3.87,4.81-3.35,2.82.58,3.2,2.96,3.24,5.52.61-1.65-.84-4.54,2.61-4.3.66.11,1.33.2,2.01.17,6.11-.24,10.12-2.59,9.53-9.53.85-.59,1.78-.7,2.77-.46,2.11.9,3.82,3.68,6.59,1.35,1.05-.76,2.17-1.34,3.51-1.32,3.39.55,7.02.76,7.61,5.08-1.42-5.92,2.99-11.29,2.27-17.32.25-.64.62-1.19,1.09-1.68,2.22-1.45,4.35-1.92,6.19.6.78,1.02-.64,2.82,1.18,3.43.62.21,1.52.02,1.68-.66.49-1.95-1.63-2.41-2.34-3.71-.31-.59-.44-1.22-.42-1.88.23-1.02.84-1.7,1.8-2.09,5.03-.61,3.02-3.66,2.15-6.31-.06-1.03.25-1.92,1-2.63,4.81.45,9.72.46,14.42,1.45,6.53,1.37,8.07,7.16,9.2,12.61,1.08,5.16-.15,10.33-2.78,14.77-3.08,5.19-4.83,10.54-4.24,16.52.31,3.14-1.06,4.73-3.89,5.57-6.23,1.85-11.86,3.3-18.3-1.11-8.51-5.83-21.77-3.1-29.16,4.96-2.98,3.25-6.16,4.92-10.53,5.55-5.01.72-10.03,2.06-14.76,3.86-15.51,5.89-31.36,5.34-47.38,3.34-8.58-1.07-15.89-4.69-22.26-10.4Z"/>
  <path class="cls-19" d="M177.24,118.18c-3.32,1.35-.59,5.21-2.91,6.99-.31-.25-.87-.47-.89-.75-.21-2.63,1.03-6.93-2.38-6.92-2.94.01-5.38,4.16-5.65,7.29-.18,2.08-.3,4.22-1.99,4.32-5.45.34-10.08,1.64-13.46,6.35-.82,1.14-2.64.48-3.69-.63-1.82-1.91-.28-3.61,1.08-6.03-5.33,1.87-9.23-.46-13.26-2.24-.44,4.69,1.79,8.91,2.22,13.35.29,2.94-2.35,3.78-4.88,2.01-5.09-3.56-7.1-4.3-13.1-3.77-1.16.1-2.29.57-3.26-.23-1.54-1.26-4.92-1.85-1.47-4.99.84-.76,3.42-3.06.91-5.25-.82-1.04-.76-2.09-.03-3.14l4.4-2.17c4.4,3.3,4.11-1.52,5.61-3.24,8.18-4.77,16.36-9.52,24.53-14.3,10.55-6.17,18.5-14.48,22.47-26.34,1.9-5.69,4.22-11.27,7.65-16.29,3.1-4.54,5.92-5.94,10.13-.79,4.97,6.08,10.5,11.81,18.91,13.14,1.91.81,3.82,1.62,5.73,2.43.28,2.72,3.9,4.49,2.21,7.78-3.07,1.72-6.2,1.27-9.45.48-2.66-.65-5.02-.7-7.55,1.63-6.11,5.66-5.9,8.39,2.63,12.66-2.68-4.15-5.83-7.63-2.17-12.18,2.83-3.53,6.95-3.55,8.39.75.92,2.75,3.54,3.58,4.48,5.93,2.37,8.05-4.81,15.02-2.62,23.44-1.13-5.23-3.96-8.37-9-9.26-3.12-2.26-5.11-6.12-9.43-6.68-1.62-.92-3.25-1.78-4.89-.41,1.58-.04,3.38-.34,4.98.76,1.26.55,2.68.86,3.34,2.3.26,2.67-.56,4.36-3.63,4.01-.74,0-1.47,0-2.21,0-2.17,1.24-7.2-1.28-5.41,5.15,1.02,3.67-3.61,3.9-6.32,4.84Z"/>
  <path class="cls-19" d="M248.81,137.64c-1.1,18.7,3.02,36.67,7.57,54.58.8,3.16,2.09,6.44,1.23,9.54-4.57,16.44-1.75,33.75-6.1,50.19-6.54-.04-13.08-.08-19.61-.12-2.11-3.71.3-6.76,1.69-9.79,3.7-8.03,8.14-15.72,11.71-23.81,4.18-9.46,7.73-19.14,1.14-30.43-3.99,11.02-12.78,18.02-17.97,27.37-3.98,7.17-3.36,15.81-4.58,23.83-.61,4.05-.23,8.51-4.25,11.29-4.53-.03-8.75-1.45-12.95-2.95,4.54-16.37,10.84-31.9,21.64-45.27,7.41-9.17,12.62-19.3,14.57-32.72-4.99,4.87-8.3,9.16-11.84,13.21-4.88,5.59-9.05,11.85-14.65,16.76-6.81,5.96-9.95,13.19-9.26,22.19.45,5.86-.97,11.54-1.98,17.25-.49,2.74-1.37,5.42-3.7,7.3-4.37-2-8.85-3.79-13.08-6.04-6.33-3.36-6.66-5.29-2.35-11.21,1.08-1.48,2.49-2.73,2.65-4.71,5.66-13.49,15.15-24.45,24.11-35.68,11.72-14.69,24.58-28.51,33.24-45.43,1.47-1.51.69-4.18,2.79-5.36Z"/>
  <path class="cls-19" d="M286.55,155.44c7.79,2.45,15.84,3.54,23.87,4.79,24.61,3.82,46.86,12.85,65.28,30.12-2.73,5.36-7.18,9.34-11.03,13.79-13.01-14.91-31.48-26.83-52.28-33.4,7.76,10.43,12.9,21.59,21.43,30.47,3.72,3.87,7.6,7.45,12.55,9.78,1.9.89,4.67,1.4,4.34,4.59-2.46,4.69-7.28,6.68-11.16,9.75-14.53-9.81-23.41-23.91-29.96-39.71-4.91-11.84-13.27-20.32-24.53-26.14-.93-3.4-.8-3.73,1.49-4.03Z"/>
  <path class="cls-19" d="M389.7,161.29c-1.38-.13-2.78-.48-4.14-.35-14.72,1.38-27.41-3.2-38.38-12.92-5.1-4.52-10.93-7.77-17.31-10.15-2.59-.97-5.6-1.88-7.38-3.78-12.04-12.89-26.12-8.63-40.22-5.35-2.24.52-5.4,3.6-6.66.7-1.19-2.73,3.06-3.5,5.09-4.37,12.31-5.28,25.14-7.76,37.71-1.74,9.49,4.55,18.9,4.1,28.42,1.91,13.78-3.17,27.42-4.57,41.28-.7,2.31.64,5.05,1.68,7.01-1.07-.47,4.69-.93,9.37-1.4,14.06-2.34,1.97-4.87,1.24-7.22.23-11.29-4.84-23.05-4.61-34.91-3.47-2.07.2-4.32,1.16-5.4-.11,4.52,1.13,8.62,4.91,13.41,7.5,6.92,3.74,14.19,5.52,22.11,4.18,3.61-.61,7.36-1.49,10.72,1.02.76,5.13-1.5,9.68-2.76,14.42Z"/>
  <path class="cls-8" d="M206.92,40.91c-.22-2.43,2.13-3.51,2.86-5.44,4.59-3.71,9.18-7.42,13.78-11.13,1.49-.71,2.27.34,2.59,1.4,3.44,11.66,13.03,17.09,22.72,22.3,5.58,3,10.74,6.48,15.34,10.81,3.56,3.35,5.93,7.5,5.59,12.34-.69,10.02-3.15,19.63-8.59,28.27-9.21-2.56-10.34-11.25-13.8-18.17-1.63-2.01-2.41-4.45-3.44-6.76-3.56-8.01-9.22-13.69-17.6-16.62-3.48-1.22-6.98-2.5-10.25-4.23-5.13-2.73-9.06-6.41-9.21-12.77Z"/>
  <path class="cls-23" d="M266.95,108.01c6.85-15.33,20.68-23.7,33.2-33.4,3.44-2.67,6.61-5.7,9.9-8.56,3.18-1.69,5.53,3.42,8.8,1.05,5.57-2.54,11.38-4.07,17.52-4.2,7.4-.16,13.42-2.49,17.53-9.33,2.47-4.11,5.76-7.93,10.65-9.69,3.72,3.65,7.16,7.5,8.66,12.68-8.21,12.13-18.38,20.16-34.26,19.55-8.22-.32-16.45,2.33-24.79,2.99-5.27.42-10.04,3.47-14.17,7-10.84,9.24-23.18,16.8-31.82,28.5-.4-2.2-.81-4.39-1.21-6.58Z"/>
  <path class="cls-38" d="M364.55,43.89c-4.25,5.11-9.06,9.71-12.64,15.46-2.66,4.28-7.9,4.43-12.47,4.93-7.13.78-14.22,1.61-20.87,4.53-2.71,1.56-3.84-.27-2.93-2.19,6.01-12.75,7.23-27.91,18.88-37.82,2.61-2.22,5.08-4.88,9.09-3.37,7.53,5.52,14.61,11.56,20.93,18.45Z"/>
  <path class="cls-8" d="M350.71,215.57c-21.07-9-29.04-29.71-41.76-46.49,1.62-1.47,3.09-.47,4.4.07,16.51,6.87,33.33,13.24,46.3,26.3,2.39,2.41,5.43,4.59,5.02,8.68-4.74,3.7-7.83,9.42-13.96,11.43Z"/>
  <path class="cls-29" d="M219.63,250.29c3.9-9.91,2.55-20.72,5.24-30.85.73-2.75,1.43-5.41,3.26-7.59,7.32-8.67,14.68-17.3,18.39-29.56,7.71,13.44,6.15,25.41.22,37.33-5.26,10.59-11.51,20.72-14.85,32.19-4.09-.51-8.18-1.02-12.26-1.53Z"/>
  <path class="cls-29" d="M201.45,246.06c2.69-10.1,4.34-20.31,4.14-30.84-.08-3.9.84-7.95,3.83-10.9,12.03-11.9,21.92-25.68,33.77-38.51,2.01,6.78.17,12.62-2.23,18.38-3.78,9.08-9.9,16.65-15.34,24.72-5.91,8.75-11.71,17.88-13.65,28.71-.66,3.72-3.4,6.54-5.29,9.71-1.74-.43-3.48-.85-5.22-1.28Z"/>
  <path class="cls-26" d="M261.21,99.47c2.06-7.82,4.31-15.6,6.14-23.47,1.88-8.11-.7-14.61-7.94-19.06-5.13-3.15-10.17-6.46-15.38-9.45-9.45-5.43-17.75-11.8-20.48-23.14,2.33-1.43,4.65-2.87,6.98-4.3,2.33,7.27,4.94,14.33,13.36,17.61.71-8.32-.47-16.57.58-24.72,2.93-2.25,6.6-2.62,9.9-3.93-.77,8.51-.3,17.05-1.69,25.6-1.31,8.06,5.62,13.35,10.54,17.77,10.46,9.38,12.63,19.99,8.8,32.59-1.95,6.41-4.47,12.65-6.74,18.96-1.84-1.05-3.41-2.34-4.09-4.46Z"/>
  <path class="cls-20" d="M87.95,164.49c21.78-3.49,42.29-7.26,62.7-11.58,9.55-2.02,18.45-6.23,28.17-7.67,3.19-.47,3.9-.24,3.79,3.2-.36,10.99-.19,10.94-11.03,12.42-22.58,3.09-45.26,4.8-68.04,5.15-4.8.07-9.67.35-15.59-1.52Z"/>
  <path class="cls-11" d="M289.17,247.59c.79-2.41,1.53-4.84,2.36-7.24,2.37-6.82,2.33-12.69-3.66-18.29-7.27-6.8-7.49-16.59-8.61-25.79.43-3.78,2.77-2.52,4.88-1.84,4.02,8.56,8.79,15.99,17.16,21.67,8.76,5.94,8.6,16.1,6.37,25.82-5.89,2.8-12.05,4.75-18.52,5.67Z"/>
  <path class="cls-20" d="M88.13,191.72c21.02-7.34,41.57-15.93,62.65-22.89,10.21-3.37,21.5-3.48,32.31-5.04,2.83-.41,3.89,1.71,5.24,3.92-32.73,11.24-65.91,19.8-100.2,24.01Z"/>
  <path class="cls-25" d="M390.92,94.5c-8.36,6.17-17.59,8.9-28.09,8.27-10.2-.62-20.47-.06-30.67-.68-13.46-.82-25.65,3.17-37.64,8.49-3.3,1.46-6.43,3.69-10.37,3.05-.39-2.86,1.9-3.39,3.29-4.14,13.41-7.25,27.49-12.36,42.95-12.64,3.72-.07,7.46-.1,11.15.25,17.23,1.62,32.52-3.53,46.59-13.08,1.69,3.29,3.13,6.65,2.78,10.49Z"/>
  <path class="cls-15" d="M318.55,11.56c-5.99,5.09-11.92,10.25-17.99,15.25-3.52,2.9-5.7,6.59-7.4,10.72-2.03,4.92-4.12,9.83-7.52,14.02-.86,1.06-1.77,2.31-3.41,1.83-1.53-.44-2.59-2.03-2.15-3.17,5.69-14.95-1.84-30.4,1.84-45.38,5.62.33,11.36-1.58,16.85.99-9.18,3.03-10.91,10.09-10.66,18.69.13,4.42.28,9.02-.71,11.99-.95-9.48,4.92-17.29,12.04-24.49,1.58-1.6,1.67-3.78,2.44-5.7,5.95.49,11.17,3.33,16.68,5.25Z"/>
  <path class="cls-32" d="M131.5,199.83c20.8-9.37,41.16-18.62,61.6-27.71,5.04-2.24,9.59,2.55,15.09,1.05-.21,3.69-1.91,5.51-4.52,6.75-22.17,10.55-45.62,16.9-69.7,21.17-.66.12-1.49-.73-2.48-1.26Z"/>
  <path class="cls-32" d="M111.67,265.24c23.66-16.7,46.11-34.62,70.93-50.62-2.54,10.97-6.99,18.75-16.95,24.02-15.57,8.23-30.61,17.46-46.43,25.26-2.21,1.09-4.31,2.84-7.54,1.34Z"/>
  <path class="cls-5" d="M132.44,169.83c-13.45,6.06-25.6,9.9-38.81,10.82-24.62,1.72-48.92,6.01-73.19,10.36-2.04.37-4.11.56-6.95.94,13.94-7.62,89.51-21.71,118.95-22.12Z"/>
  <path class="cls-29" d="M392.45,146.87c-2.53.18-5.12.07-7.59.58-11.95,2.47-22.43-.76-32.09-7.77-2.94-2.14-6.12-3.95-9.86-6.33,16.11-2.23,31.36-3.52,46.1,3.25,1.41.65,3.13.63,4.71.92.47,3.24.48,6.41-1.29,9.34Z"/>
  <path class="cls-20" d="M134.15,229.61c21.92-13.82,40.9-32.25,65.43-42.14-3.81,7.93-7.29,15.5-15.98,19.6-16.11,7.6-31.08,17.49-47.69,24.15-1.62.6-1.96-.21-1.77-1.61Z"/>
  <path class="cls-18" d="M30.17,114.82c29.52,14.19,56.83,33.69,91.69,38.58-7.46,2-13.39,3.74-20.04,1.67-26.01-8.1-52.91-22.71-71.65-40.25Z"/>
  <path class="cls-19" d="M206.92,40.91c2.91,7.82,9.1,11.57,16.68,14.01,12.94,4.16,22.29,11.81,23.82,26.39-3.69-4.34-9.3-3.45-13.97-5.12,1.13-1.71,2.63-1.59,3.86-1.03-3.37-6.05-9.66-7.37-16.13-9.15-8.78-2.42-16.96-6.42-21.34-15.33,1.64-3.77,3.22-7.59,7.07-9.76Z"/>
  <path class="cls-22" d="M246.01,142.99c-1.75,10.35-8.52,17.81-14.84,25.45-14.89,18-29.48,36.23-42.5,55.66-.02-2.83-.05-5.66-.07-8.5,2.65-2.93,4.18-6.66,6.9-9.54.48-.93.95-1.86,1.43-2.78,2.37-2.94,3.83-6.6,7.1-8.8-.25-2.31,1.64-3.47,2.74-5.05,5.45-8.52,11.54-16.52,18.87-23.53,5.38-6.95,10.53-14.02,13.79-22.29.64-1.63,1.14-3.65,3.53-3.75.17,1.86,1.03,3.04,3.04,3.12Z"/>
  <path class="cls-35" d="M167.96,199.19c-22.32,19.54-52,18.8-77.59,29.27,24.97-12.2,49.93-24.43,77.59-29.27Z"/>
  <path class="cls-4" d="M199.84,50.67c8.58,9.23,19.22,14.29,31.65,15.95,2.41.32,3.56,2.75,4.91,4.63,2.9,4.02.79,4.96-2.96,4.94-7.35-1.56-14.71-3.11-22.07-4.67-.58-.35-1.13-.8-1.76-1.03-13.35-4.95-14.03-6.32-9.77-19.81Z"/>
  <path class="cls-17" d="M187.05,151.52c.13-11.41,8.97-19.81,20.69-19.69,9.96.1,17.81,8.71,17.64,19.35-.16,10.16-8.87,17.56-20.32,17.27-10.24-.26-18.12-7.66-18.01-16.93Z"/>
  <path class="cls-13" d="M36.66,149.66c19.04,2.27,38.54,1.19,57.1,8.12-6.71,1.31-12.66,5.08-20.13,3.55-14.81-3.04-29.62-5.96-44.13-10.27,1.76-3.68,4.71-1.26,7.16-1.4Z"/>
  <path class="cls-31" d="M78.34,208.78c23.22-9.97,46.46-19.86,73.57-24.09-23.49,13.65-48.02,18.84-71.96,25.64-1.51.5-1.85-.23-1.61-1.55Z"/>
  <path class="cls-7" d="M244.47,12.94c2.7,9.19,1.23,18.58,2.05,28.2-12.75-5.2-16.06-9.71-15.99-21.1,4.27-3.11,8.86-5.58,13.94-7.1Z"/>
  <path class="cls-12" d="M343.62,25.44c-8.12,2.05-12.46,8.38-16.04,15.05-4.56,8.49-5.73,18.43-10.98,26.73-1.09,1.72,1.11,1.27,1.97,1.6-4.38,3.81-5.28-3.09-8.53-2.77,6-6.05,9.8-13.11,10.98-21.7,1-7.27,4.55-13.37,9.96-18.44,1.76-1.65,4.26-2.93,4.42-5.86,2.74,1.8,5.48,3.59,8.22,5.39Z"/>
  <path class="cls-6" d="M245.21,126.69c-2.17-9.45,4.76-15.62,6.7-23.26.49-1.95,2.38-1.09,3.42-.85,5.7,1.32,8.7,8.69,5.59,13.63-3.5,5.57-8.87,8.46-15.71,10.47Z"/>
  <path class="cls-13" d="M242.98,139.87c-3.77,10.08-9.08,19.19-16.84,26.75-1.1.27-1.54-.09-1.16-1.22,5.58-7.59,7.02-15.71,3.05-24.48-.87-1.92-.54-3.14,1.74-3.35,4.81-.46,9.24-2.42,14.22-4.18-.41,2.65-.71,4.57-1.01,6.49Z"/>
  <path class="cls-9" d="M301.87,6.31c.43,1.3,4.34.82,1.74,3.74-3.84,4.3-7.56,8.72-11.17,13.22-3.7,4.61-2.49,11.02-5.75,17.18-.01-9.12-1.12-16.97.25-24.76,1.39-7.92,4.06-10.02,11.83-9.87,1.03.16,2.07.32,3.1.49Z"/>
  <path class="cls-39" d="M224.98,165.4c.39.41.77.82,1.16,1.22-6.22,7.8-12.03,15.95-19.36,22.81,1.39-7.25,5.49-13.27,10.32-18.3,1.97-2.05,3.75-6.02,7.88-5.74Z"/>
  <path class="cls-19" d="M216.62,84.33c-1.92-2.07-4.48-3.91-2.72-7.35,3.22,1.05,6.45,2.11,9.68,3.16,0,.91-.01,1.81-.02,2.72-1.57,2.27-3.19,4.42-6.34,2.24-.2-.26-.4-.52-.6-.78Z"/>
  <path class="cls-30" d="M78.34,208.78c.54.52,1.07,1.03,1.61,1.55-3.62,2.51-7.91,2.7-12.02,3.66,3-2.79,6.62-4.18,10.41-5.21Z"/>
  <path class="cls-16" d="M195.51,206.07c-1.26,3.93-3.27,7.32-6.9,9.54,1.83-3.52,2.44-7.92,6.9-9.54Z"/>
  <path class="cls-14" d="M134.15,229.61c.59.54,1.18,1.07,1.77,1.61-2.86,2.33-6.1,3.56-10.04,3.06,2.76-1.55,5.52-3.11,8.28-4.66Z"/>
  <path class="cls-15" d="M36.66,149.66c-2.24,1.19-5.11-.78-7.16,1.4-1.59-.51-3.19-1.01-4.78-1.52,4.17-1.1,8.1-1.33,11.94.12Z"/>
  <path class="cls-2" d="M204.04,194.48c-2.03,3.21-3.67,6.73-7.1,8.8,1.48-3.65,2.02-8.06,7.1-8.8Z"/>
  <path class="cls-3" d="M114.47,124.56c.01,1.05.02,2.09.03,3.14-2.84,1.83-6.52,2.27-8.48,5.58-1.04,1.75-2.53,3.55-5.03,2.44-.69-.31-1.45-1.29-1.5-2.01-.16-2.33,1.94-2.52,3.37-3.59,1.85-1.38-1-.67-1.17-1.4,4.26-1.39,8.51-2.77,12.77-4.16Z"/>
  <path class="cls-36" d="M124.47,119.15c1.43,3.79-2.97,5.75-1.25,10.37-3.93-2.56-2.51-5.61-4.36-7.13,1.87-1.08,3.74-2.16,5.61-3.24Z"/>
  <path class="cls-19" d="M284.14,194.43c-1.76.26-3.73-.03-4.88,1.84-2.3-11.1-7.78-20.56-14.99-29.15-1.12-1.33-2.98-3.13-1-4.74,1.96-1.6,3.39.52,4.39,1.94,6.59,9.43,13.9,18.49,16.49,30.11Z"/>
  <path class="cls-27" d="M286.55,155.44c-.5,1.34-1,2.69-1.49,4.03-7.18-3.3-14.41-6.56-19.94-12.45-4.24-4.52-6.83-9.63-4.61-16.13.88.21,1.66.27,1.68.42,1.83,14.41,14.12,18.24,24.37,24.13Z"/>
  <path class="cls-41" d="M212.43,94.04c-2.71-1.12-7.24-.37-5.7-5.82.34-1.2-.77-2.04-2.11-2.21-2.31-.29-3.37.86-3.79,3.01-.36,1.81-3.74,4.12-.98,5.22,4.7,1.87,2.37,5.32,4,9.38-4.29-2.69-8.36-3.92-10.17-6.65-3.31-5,3.45-13.52,9.76-13.11,4.38.29,8.77.32,13.16.47,0,0-.07-.09-.07-.09,1.29,1.96,4.79,2.14,4.43,5.44-.54.53-1.09,1.05-1.63,1.58-2.47.58-5.44-.04-6.98,2.84l.06-.07Z"/>
  <path class="cls-21" d="M177.24,118.18c2.86-2.33,7.96-3.71,3.65-9.01-.7-.87-.85-2.2.12-3.13,1.24-1.19,2.44-.46,3.68.22,1.37.75,2.85,1.29,4.28,1.93,0,2.8,2.77,6.44.57,8.1-3.33,2.52-8.01,2.34-12.3,1.89Z"/>
  <path class="cls-40" d="M220.98,89.69c-.77-2.39-4.74-2.17-4.43-5.44,2.76,1.71,4.6-1.28,7.01-1.38,2.04,1.7,3.74,3.56,2.11,6.42-1.31,2.3-3.03,1.41-4.69.4Z"/>
  <path class="cls-33" d="M219.41,92.64c2.97.49,6.19,2.33,5.17,5.05-1.71,4.56-5.78-.04-9.25,1.89,1.23-2.58,1.97-4.13,2.72-5.68-.2-1.13-.02-1.85,1.36-1.26Z"/>
  <path class="cls-1" d="M194.13,104.11c-.92-.53-1.84-1.06-2.76-1.58-.46-.61-.42-1.19.13-1.73,5.27-.24,7.96,2.76,9.32,7.42-.73.43-1.45.86-2.18,1.29-3.34-.26-3.2-3.43-4.51-5.39Z"/>
  <path class="cls-21" d="M194.13,104.11c1.5,1.8,3,3.59,4.51,5.39-3.65,6.23-5.43,1.78-7.45-1.3,1.74-.82,2.97-2,2.95-4.09Z"/>
  <path class="cls-19" d="M219.41,92.64c-.45.42-.91.84-1.36,1.26-1.95-1.58-3.79.02-5.67.21.71-4.91,3.4-4.96,6.98-2.84.08.45.1.91.06,1.37Z"/>
  <path class="cls-24" d="M191.5,100.79c-.04.58-.08,1.16-.13,1.73-2.51,0-5.02,0-8.5,0,3.16-2.2,4.61-7.69,8.62-1.73Z"/>
  <path class="cls-8" d="M162.66,122.4c-3.31,2.54-5.69,2.79-9.05,1.07,3.22-2.13,5.85-1.24,9.05-1.07Z"/>
  <path class="cls-28" d="M221.19,150.05c.09,8.66-6.47,15.14-15.45,15.27-8.33.12-14.46-5.57-14.51-13.48-.07-9.21,7.01-16.3,16.29-16.31,7.72,0,13.59,6.23,13.67,14.52Z"/>
</svg>